<svg width="16" height="12" viewBox="0 0 16 12" fill="none" xmlns="http://www.w3.org/2000/svg">
<path d="M15.8935 4.97005L14.1354 1.41844C13.8335 0.796912 13.212 0.406235 12.5017 0.406235H3.48058C2.77026 0.406235 2.16648 0.779154 1.84684 1.41844L0.0887902 4.95229C0.0355161 5.05884 0 5.18315 0 5.2897V10.0666C0 10.9012 0.674806 11.5938 1.52719 11.5938H14.4728C15.3074 11.5938 16 10.919 16 10.0666V5.30746C15.9822 5.18315 15.9467 5.05884 15.8935 4.97005ZM11.081 4.54386C10.7259 4.54386 10.424 4.79247 10.3352 5.14763C10.3174 5.21867 9.90899 7.11878 7.97336 7.11878C6.09101 7.11878 5.66482 5.36073 5.61154 5.14763C5.54051 4.79247 5.23862 4.54386 4.8657 4.54386H1.9889L3.21421 2.09325C3.26748 2.00446 3.37403 1.91567 3.48058 1.91567H12.5017C12.6082 1.91567 12.7148 1.96894 12.768 2.09325L13.9756 4.54386H11.081Z" fill="#E4E4EE"/>
</svg>
